<?xml version="1.0" encoding="iso-8859-1"?>
<!-- Generator: Adobe Illustrator 21.0.2, SVG Export Plug-In . SVG Version: 6.00 Build 0)  -->
<svg version="1.1" id="Layer_1" xmlns="http://www.w3.org/2000/svg" xmlns:xlink="http://www.w3.org/1999/xlink" x="0px" y="0px"
	 viewBox="0 0 100.75 100.75" style="enable-background:new 0 0 100.75 100.75;" xml:space="preserve">
<g>
	<path d="M50,60.8c-17.008,0-30.845,13.837-30.845,30.845c0,0.829,0.671,1.5,1.5,1.5h58.69c0.829,0,1.5-0.671,1.5-1.5
		C80.845,74.637,67.008,60.8,50,60.8z M22.195,90.145C22.977,75.486,35.15,63.8,50,63.8s27.023,11.686,27.805,26.345H22.195z"/>
	<path d="M49.491,58.057c9.838,0,17.843-8.007,17.843-17.85c0-3.477-1.003-6.831-2.89-9.726V8.355c0-0.829-0.671-1.5-1.5-1.5H36.04
		c-0.829,0-1.5,0.671-1.5,1.5v22.116c-1.892,2.901-2.895,6.262-2.895,9.736C31.644,50.05,39.65,58.057,49.491,58.057z M37.539,9.856
		h23.904v19.947H37.539V9.856z M36.629,32.802h25.729c1.295,2.245,1.976,4.784,1.976,7.405c-0.001,8.189-6.659,14.85-14.843,14.85
		c-8.186,0-14.846-6.662-14.846-14.85C34.645,37.59,35.331,35.05,36.629,32.802z"/>
	<path d="M54.718,18.495h-3.727v-3.733c0-0.829-0.671-1.5-1.5-1.5s-1.5,0.671-1.5,1.5v3.733h-3.728c-0.829,0-1.5,0.671-1.5,1.5
		c0,0.829,0.671,1.5,1.5,1.5h3.728v3.728c0,0.829,0.671,1.5,1.5,1.5s1.5-0.671,1.5-1.5v-3.728h3.727c0.829,0,1.5-0.671,1.5-1.5
		C56.218,19.166,55.546,18.495,54.718,18.495z"/>
</g>
</svg>
